<?xml version="1.0" encoding="UTF-8" standalone="no"?>
<!-- Created with Inkscape (http://www.inkscape.org/) -->

<svg
   xmlns:dc="http://purl.org/dc/elements/1.1/"
   xmlns:cc="http://creativecommons.org/ns#"
   xmlns:rdf="http://www.w3.org/1999/02/22-rdf-syntax-ns#"
   xmlns:svg="http://www.w3.org/2000/svg"
   xmlns="http://www.w3.org/2000/svg"
   xmlns:sodipodi="http://sodipodi.sourceforge.net/DTD/sodipodi-0.dtd"
   xmlns:inkscape="http://www.inkscape.org/namespaces/inkscape"
   width="744.09448819"
   height="1052.3622047"
   id="svg2"
   version="1.1"
   inkscape:version="0.48.2 r9819"
   sodipodi:docname="logo.svg">
  <defs
     id="defs4" />
  <sodipodi:namedview
     id="base"
     pagecolor="#ffffff"
     bordercolor="#666666"
     borderopacity="1.0"
     inkscape:pageopacity="0.0"
     inkscape:pageshadow="2"
     inkscape:zoom="0.49497475"
     inkscape:cx="373.83924"
     inkscape:cy="799.59815"
     inkscape:document-units="px"
     inkscape:current-layer="layer1"
     showgrid="false"
     showguides="true"
     inkscape:guide-bbox="true"
     inkscape:window-width="1024"
     inkscape:window-height="552"
     inkscape:window-x="0"
     inkscape:window-y="0"
     inkscape:window-maximized="1" />
  <metadata
     id="metadata7">
    <rdf:RDF>
      <cc:Work
         rdf:about="">
        <dc:format>image/svg+xml</dc:format>
        <dc:type
           rdf:resource="http://purl.org/dc/dcmitype/StillImage" />
        <dc:title></dc:title>
      </cc:Work>
    </rdf:RDF>
  </metadata>
  <g
     inkscape:label="Layer 1"
     inkscape:groupmode="layer"
     id="layer1">
    <rect
       style="fill:#ffcc00;fill-opacity:1;stroke:none"
       id="rect3261"
       width="741.45197"
       height="242.43661"
       x="0"
       y="222.01678" />
    <g
       id="g3191"
       transform="matrix(2.1827797,0,0,2.1827797,2335.1278,-509.11866)"
       inkscape:export-filename="/home/muslih/Documents/2013/paduhost-web/img/logo.png"
       inkscape:export-xdpi="90"
       inkscape:export-ydpi="90">
      <path
         style="fill:#333333;fill-opacity:1;stroke:none"
         d="m -974.31544,400.88134 c -0.006,0.19247 -0.0169,0.38793 -0.0392,0.58171 -0.24344,2.11606 -1.42784,4.11337 -3.35961,5.92179 -0.38014,0.35595 -0.79183,0.70507 -1.2288,1.04579 -0.21849,0.17036 -0.44105,0.33695 -0.67322,0.5033 -0.18958,0.13576 -0.38321,0.27224 -0.58173,0.40524 -0.10031,0.0673 -0.20462,0.12951 -0.30719,0.19609 -0.17565,0.11388 -0.35383,0.22813 -0.53596,0.33988 -0.0203,0.0125 -0.0385,0.0268 -0.0588,0.0392 -0.24237,0.14787 -0.49163,0.30045 -0.74513,0.44446 -0.0186,0.0104 -0.0402,0.0157 -0.0588,0.0261 -0.22096,0.12476 -0.44413,0.25082 -0.67324,0.37255 -0.0461,0.0246 -0.0908,0.0475 -0.13725,0.0719 -0.009,0.005 -0.0174,0.009 -0.0261,0.0132 -0.007,0.004 -0.0128,0.009 -0.0197,0.0132 -0.23746,0.12413 -0.47973,0.24515 -0.72553,0.36602 -0.0326,0.0161 -0.0652,0.0297 -0.098,0.0457 -0.27189,0.13262 -0.5484,0.26364 -0.83011,0.39217 -0.06,0.0274 -0.12255,0.0512 -0.18301,0.0784 -0.26961,0.12138 -0.54536,0.24196 -0.82356,0.3595 -0.009,0.004 -0.0172,0.009 -0.0262,0.0132 -0.21359,0.09 -0.42856,0.18027 -0.64707,0.26797 -0.1886,0.0757 -0.37646,0.14827 -0.56866,0.22223 -0.0655,0.0252 -0.13018,0.0534 -0.19608,0.0784 -0.1798,0.0683 -0.35967,0.13589 -0.5425,0.20263 -0.0632,0.023 -0.12599,0.0425 -0.18956,0.0654 -0.27885,0.10042 -0.55753,0.1973 -0.84316,0.29412 -0.0178,0.006 -0.0346,0.0136 -0.0523,0.0197 -0.57395,0.19381 -1.16478,0.37678 -1.76477,0.55559 -0.0285,0.009 -0.0564,0.0178 -0.085,0.0261 -0.31551,0.0933 -0.63193,0.18542 -0.95428,0.27452 -0.32035,0.0885 -0.64701,0.1772 -0.97388,0.26145 -0.32949,0.085 -0.66414,0.16787 -1.00005,0.24837 -5.71491,1.36976 -12.33881,2.08799 -19.32751,1.93472 -5.6929,-0.12487 -11.0121,-0.8115 -15.6934,-1.93472 -0.3458,-0.083 -0.6874,-0.17376 -1.0261,-0.26144 -0.1714,-0.0443 -0.3403,-0.0852 -0.5098,-0.13073 -0.1695,-0.0455 -0.3423,-0.0906 -0.5099,-0.13727 0,-0.002 -0.01,-0.005 -0.013,-0.006 -0.3323,-0.0926 -0.6623,-0.18391 -0.987,-0.28105 -0.011,-0.003 -0.021,-0.01 -0.033,-0.0132 -0.01,-0.002 -0.013,-0.005 -0.02,-0.006 l 0,13.43186 c 5.3735,1.61612 11.7975,2.63104 18.7915,2.78441 20.10728,0.44097 37.22676,-6.31945 38.23675,-15.09859 0.0107,-0.0936 0.0125,-0.18774 0.0197,-0.28105 l 0.0261,0 0,-0.71898 0,-13.02663 -0.006,0 z"
         id="path3179"
         inkscape:connector-curvature="0" />
      <path
         style="fill:#ffffff;fill-opacity:1;stroke:none"
         d="m -974.31544,383.84804 c -0.006,0.19247 -0.0169,0.38792 -0.0392,0.58171 -0.24344,2.11605 -1.42784,4.11336 -3.35961,5.92178 -0.38014,0.35595 -0.79183,0.70508 -1.2288,1.04579 -0.21849,0.17036 -0.44105,0.33696 -0.67322,0.5033 -0.18958,0.13577 -0.38321,0.27224 -0.58173,0.40525 -0.10031,0.0673 -0.20462,0.12951 -0.30719,0.19608 -0.17565,0.11389 -0.35383,0.22813 -0.53596,0.33988 -0.0203,0.0126 -0.0385,0.0268 -0.0588,0.0392 -0.24237,0.14787 -0.49163,0.30046 -0.74513,0.44446 -0.0186,0.0105 -0.0402,0.0157 -0.0588,0.0262 -0.22096,0.12476 -0.44413,0.25082 -0.67324,0.37255 -0.0461,0.0246 -0.0908,0.0475 -0.13725,0.0719 -0.009,0.005 -0.0174,0.009 -0.0261,0.0132 -0.007,0.004 -0.0128,0.009 -0.0197,0.0132 -0.23746,0.12414 -0.47973,0.24515 -0.72553,0.36603 -0.0326,0.0161 -0.0652,0.0297 -0.098,0.0457 -0.27189,0.13263 -0.5484,0.26364 -0.83011,0.39217 -0.06,0.0274 -0.12255,0.0512 -0.18301,0.0784 -0.26961,0.12137 -0.54536,0.24195 -0.82356,0.3595 -0.009,0.004 -0.0172,0.009 -0.0262,0.0132 -0.21359,0.09 -0.42856,0.18028 -0.64707,0.26798 -0.1886,0.0757 -0.37646,0.14827 -0.56866,0.22223 -0.0655,0.0252 -0.13018,0.0534 -0.19608,0.0784 -0.1798,0.0683 -0.35967,0.13589 -0.5425,0.20263 -0.0632,0.023 -0.12599,0.0425 -0.18956,0.0654 -0.27885,0.10042 -0.55753,0.1973 -0.84316,0.29412 -0.0178,0.006 -0.0346,0.0136 -0.0523,0.0197 -0.57395,0.19381 -1.16478,0.37678 -1.76477,0.55559 -0.0285,0.009 -0.0564,0.0178 -0.085,0.0261 -0.31551,0.0934 -0.63193,0.18542 -0.95428,0.27452 -0.32035,0.0885 -0.64701,0.1772 -0.97388,0.26145 -0.32949,0.085 -0.66414,0.16787 -1.00005,0.24838 -5.71491,1.36975 -12.33881,2.08798 -19.32751,1.93471 -5.6929,-0.12487 -11.0121,-0.81149 -15.6934,-1.93471 -0.3458,-0.083 -0.6874,-0.17377 -1.0261,-0.26145 -0.1714,-0.0443 -0.3403,-0.0852 -0.5098,-0.13072 -0.1695,-0.0455 -0.3423,-0.0906 -0.5099,-0.13727 0,-0.002 -0.01,-0.005 -0.013,-0.006 -0.3323,-0.0926 -0.6623,-0.18391 -0.987,-0.28104 -0.011,-0.003 -0.021,-0.01 -0.033,-0.0132 -0.01,-0.002 -0.013,-0.005 -0.02,-0.006 l 0,13.4384 c 5.3735,1.6148 11.7978,2.62449 18.7915,2.77787 20.10728,0.44097 37.22676,-6.31946 38.23675,-15.0986 0.0107,-0.0936 0.0125,-0.18774 0.0197,-0.28104 l 0.0261,0 0,-0.71898 0,-13.02664 -0.006,0 z"
         id="path3181"
         inkscape:connector-curvature="0" />
      <path
         style="fill:#333333;fill-opacity:1;stroke:none"
         d="m -1010.7173,351.8724 c -0.6222,-1.3e-4 -1.2476,0.0124 -1.8759,0.0261 -19.0532,0.41786 -33.9459,7.15303 -34.596,15.32736 -0.012,-0.13722 -0.022,-0.27376 -0.026,-0.41178 l 0.026,47.21088 c 0,7.27565 9.9958,11.03627 12.7325,12.20307 l 0,-34.08623 c 5.9118,2.21097 13.4876,3.61384 21.8635,3.79754 20.1072,0.44097 37.22668,-6.31948 38.23666,-15.0986 0.009,-0.074 0.009,-0.14827 0.0132,-0.22223 0.0111,0.13615 0.0217,0.27045 0.0261,0.40525 l 0.006,0 0,-0.46408 0,-0.71898 0,-11.84357 0,-0.71898 0,-0.46407 -0.006,0 c -0.004,0.13568 -0.0149,0.27477 -0.0261,0.41178 -0.005,-0.0761 -0.004,-0.15264 -0.0132,-0.22876 -0.97842,-8.50478 -17.07524,-15.12082 -36.36076,-15.12474 z m 0.4706,12.3011 c 12.57103,-0.008 23.30169,2.83904 24.8767,6.66691 l 0.16339,0.56212 c 0.69369,4.19546 -9.94243,7.7634 -23.75249,7.97415 -13.81,0.21073 -25.5687,-3.02049 -26.2624,-7.21596 -0.6937,-4.19546 9.9425,-7.76341 23.7525,-7.97414 0.4091,-0.006 0.8167,-0.0128 1.2223,-0.0131 z"
         id="path3183"
         inkscape:connector-curvature="0" />
    </g>
    <text
       xml:space="preserve"
       style="font-size:156.15307617px;font-style:normal;font-variant:normal;font-weight:normal;font-stretch:normal;text-align:start;line-height:125%;letter-spacing:0px;word-spacing:0px;writing-mode:lr-tb;text-anchor:start;fill:#333333;fill-opacity:1;stroke:none;font-family:Tw Cen MT Condensed;-inkscape-font-specification:'Tw Cen MT Condensed,'"
       x="219.38748"
       y="377.00378"
       id="text3185"
       sodipodi:linespacing="125%"
       inkscape:export-filename="/home/muslih/Documents/2013/paduhost-web/img/logo.png"
       inkscape:export-xdpi="90"
       inkscape:export-ydpi="90"><tspan
         sodipodi:role="line"
         id="tspan3187"
         x="219.38748"
         y="377.00378"
         style="font-size:156.15307617px;font-style:normal;font-variant:normal;font-weight:normal;font-stretch:normal;text-align:start;line-height:125%;writing-mode:lr-tb;text-anchor:start;fill:#333333;font-family:Tw Cen MT Condensed;-inkscape-font-specification:'Tw Cen MT Condensed,'"><tspan
           style="fill:#333333"
           id="tspan3220">PADU</tspan><tspan
           id="tspan3189"
           style="fill:#333333">HOST</tspan></tspan></text>
    <text
       xml:space="preserve"
       style="font-size:38.34249878px;font-style:normal;font-weight:normal;line-height:125%;letter-spacing:0px;word-spacing:0px;fill:#333333;fill-opacity:1;stroke:none;font-family:Sans"
       x="231.27785"
       y="420.94357"
       id="text3210"
       sodipodi:linespacing="125%"
       inkscape:export-filename="/home/muslih/Documents/2013/paduhost-web/img/logo.png"
       inkscape:export-xdpi="90"
       inkscape:export-ydpi="90"><tspan
         sodipodi:role="line"
         id="tspan3212"
         x="231.27785"
         y="420.94357"
         style="font-size:38.34249878px;font-style:normal;font-variant:normal;font-weight:normal;font-stretch:normal;text-align:start;line-height:125%;letter-spacing:4.14440823;writing-mode:lr-tb;text-anchor:start;fill:#333333;font-family:Ubuntu Condensed;-inkscape-font-specification:'Ubuntu Condensed,'">hosting murah indonesia</tspan></text>
    <g
       inkscape:export-ydpi="90"
       inkscape:export-xdpi="90"
       inkscape:export-filename="/home/muslih/Documents/2013/paduhost-web/img/logo.png"
       transform="matrix(2.1827797,0,0,2.1827797,2335.1278,-279.16071)"
       id="g3241">
      <path
         inkscape:connector-curvature="0"
         id="path3243"
         d="m -974.31544,400.88134 c -0.006,0.19247 -0.0169,0.38793 -0.0392,0.58171 -0.24344,2.11606 -1.42784,4.11337 -3.35961,5.92179 -0.38014,0.35595 -0.79183,0.70507 -1.2288,1.04579 -0.21849,0.17036 -0.44105,0.33695 -0.67322,0.5033 -0.18958,0.13576 -0.38321,0.27224 -0.58173,0.40524 -0.10031,0.0673 -0.20462,0.12951 -0.30719,0.19609 -0.17565,0.11388 -0.35383,0.22813 -0.53596,0.33988 -0.0203,0.0125 -0.0385,0.0268 -0.0588,0.0392 -0.24237,0.14787 -0.49163,0.30045 -0.74513,0.44446 -0.0186,0.0104 -0.0402,0.0157 -0.0588,0.0261 -0.22096,0.12476 -0.44413,0.25082 -0.67324,0.37255 -0.0461,0.0246 -0.0908,0.0475 -0.13725,0.0719 -0.009,0.005 -0.0174,0.009 -0.0261,0.0132 -0.007,0.004 -0.0128,0.009 -0.0197,0.0132 -0.23746,0.12413 -0.47973,0.24515 -0.72553,0.36602 -0.0326,0.0161 -0.0652,0.0297 -0.098,0.0457 -0.27189,0.13262 -0.5484,0.26364 -0.83011,0.39217 -0.06,0.0274 -0.12255,0.0512 -0.18301,0.0784 -0.26961,0.12138 -0.54536,0.24196 -0.82356,0.3595 -0.009,0.004 -0.0172,0.009 -0.0262,0.0132 -0.21359,0.09 -0.42856,0.18027 -0.64707,0.26797 -0.1886,0.0757 -0.37646,0.14827 -0.56866,0.22223 -0.0655,0.0252 -0.13018,0.0534 -0.19608,0.0784 -0.1798,0.0683 -0.35967,0.13589 -0.5425,0.20263 -0.0632,0.023 -0.12599,0.0425 -0.18956,0.0654 -0.27885,0.10042 -0.55753,0.1973 -0.84316,0.29412 -0.0178,0.006 -0.0346,0.0136 -0.0523,0.0197 -0.57395,0.19381 -1.16478,0.37678 -1.76477,0.55559 -0.0285,0.009 -0.0564,0.0178 -0.085,0.0261 -0.31551,0.0933 -0.63193,0.18542 -0.95428,0.27452 -0.32035,0.0885 -0.64701,0.1772 -0.97388,0.26145 -0.32949,0.085 -0.66414,0.16787 -1.00005,0.24837 -5.71491,1.36976 -12.33881,2.08799 -19.32751,1.93472 -5.6929,-0.12487 -11.0121,-0.8115 -15.6934,-1.93472 -0.3458,-0.083 -0.6874,-0.17376 -1.0261,-0.26144 -0.1714,-0.0443 -0.3403,-0.0852 -0.5098,-0.13073 -0.1695,-0.0455 -0.3423,-0.0906 -0.5099,-0.13727 0,-0.002 -0.01,-0.005 -0.013,-0.006 -0.3323,-0.0926 -0.6623,-0.18391 -0.987,-0.28105 -0.011,-0.003 -0.021,-0.01 -0.033,-0.0132 -0.01,-0.002 -0.013,-0.005 -0.02,-0.006 l 0,13.43186 c 5.3735,1.61612 11.7975,2.63104 18.7915,2.78441 20.10728,0.44097 37.22676,-6.31945 38.23675,-15.09859 0.0107,-0.0936 0.0125,-0.18774 0.0197,-0.28105 l 0.0261,0 0,-0.71898 0,-13.02663 -0.006,0 z"
         style="fill:#ffcc00;fill-opacity:1;stroke:none" />
      <path
         inkscape:connector-curvature="0"
         id="path3245"
         d="m -974.31544,383.84804 c -0.006,0.19247 -0.0169,0.38792 -0.0392,0.58171 -0.24344,2.11605 -1.42784,4.11336 -3.35961,5.92178 -0.38014,0.35595 -0.79183,0.70508 -1.2288,1.04579 -0.21849,0.17036 -0.44105,0.33696 -0.67322,0.5033 -0.18958,0.13577 -0.38321,0.27224 -0.58173,0.40525 -0.10031,0.0673 -0.20462,0.12951 -0.30719,0.19608 -0.17565,0.11389 -0.35383,0.22813 -0.53596,0.33988 -0.0203,0.0126 -0.0385,0.0268 -0.0588,0.0392 -0.24237,0.14787 -0.49163,0.30046 -0.74513,0.44446 -0.0186,0.0105 -0.0402,0.0157 -0.0588,0.0262 -0.22096,0.12476 -0.44413,0.25082 -0.67324,0.37255 -0.0461,0.0246 -0.0908,0.0475 -0.13725,0.0719 -0.009,0.005 -0.0174,0.009 -0.0261,0.0132 -0.007,0.004 -0.0128,0.009 -0.0197,0.0132 -0.23746,0.12414 -0.47973,0.24515 -0.72553,0.36603 -0.0326,0.0161 -0.0652,0.0297 -0.098,0.0457 -0.27189,0.13263 -0.5484,0.26364 -0.83011,0.39217 -0.06,0.0274 -0.12255,0.0512 -0.18301,0.0784 -0.26961,0.12137 -0.54536,0.24195 -0.82356,0.3595 -0.009,0.004 -0.0172,0.009 -0.0262,0.0132 -0.21359,0.09 -0.42856,0.18028 -0.64707,0.26798 -0.1886,0.0757 -0.37646,0.14827 -0.56866,0.22223 -0.0655,0.0252 -0.13018,0.0534 -0.19608,0.0784 -0.1798,0.0683 -0.35967,0.13589 -0.5425,0.20263 -0.0632,0.023 -0.12599,0.0425 -0.18956,0.0654 -0.27885,0.10042 -0.55753,0.1973 -0.84316,0.29412 -0.0178,0.006 -0.0346,0.0136 -0.0523,0.0197 -0.57395,0.19381 -1.16478,0.37678 -1.76477,0.55559 -0.0285,0.009 -0.0564,0.0178 -0.085,0.0261 -0.31551,0.0934 -0.63193,0.18542 -0.95428,0.27452 -0.32035,0.0885 -0.64701,0.1772 -0.97388,0.26145 -0.32949,0.085 -0.66414,0.16787 -1.00005,0.24838 -5.71491,1.36975 -12.33881,2.08798 -19.32751,1.93471 -5.6929,-0.12487 -11.0121,-0.81149 -15.6934,-1.93471 -0.3458,-0.083 -0.6874,-0.17377 -1.0261,-0.26145 -0.1714,-0.0443 -0.3403,-0.0852 -0.5098,-0.13072 -0.1695,-0.0455 -0.3423,-0.0906 -0.5099,-0.13727 0,-0.002 -0.01,-0.005 -0.013,-0.006 -0.3323,-0.0926 -0.6623,-0.18391 -0.987,-0.28104 -0.011,-0.003 -0.021,-0.01 -0.033,-0.0132 -0.01,-0.002 -0.013,-0.005 -0.02,-0.006 l 0,13.4384 c 5.3735,1.6148 11.7978,2.62449 18.7915,2.77787 20.10728,0.44097 37.22676,-6.31946 38.23675,-15.0986 0.0107,-0.0936 0.0125,-0.18774 0.0197,-0.28104 l 0.0261,0 0,-0.71898 0,-13.02664 -0.006,0 z"
         style="fill:#4d4d4d;fill-opacity:1;stroke:none" />
      <path
         inkscape:connector-curvature="0"
         id="path3247"
         d="m -1010.7173,351.8724 c -0.6222,-1.3e-4 -1.2476,0.0124 -1.8759,0.0261 -19.0532,0.41786 -33.9459,7.15303 -34.596,15.32736 -0.012,-0.13722 -0.022,-0.27376 -0.026,-0.41178 l 0.026,47.21088 c 0,7.27565 9.9958,11.03627 12.7325,12.20307 l 0,-34.08623 c 5.9118,2.21097 13.4876,3.61384 21.8635,3.79754 20.1072,0.44097 37.22668,-6.31948 38.23666,-15.0986 0.009,-0.074 0.009,-0.14827 0.0132,-0.22223 0.0111,0.13615 0.0217,0.27045 0.0261,0.40525 l 0.006,0 0,-0.46408 0,-0.71898 0,-11.84357 0,-0.71898 0,-0.46407 -0.006,0 c -0.004,0.13568 -0.0149,0.27477 -0.0261,0.41178 -0.005,-0.0761 -0.004,-0.15264 -0.0132,-0.22876 -0.97842,-8.50478 -17.07524,-15.12082 -36.36076,-15.12474 z m 0.4706,12.3011 c 12.57103,-0.008 23.30169,2.83904 24.8767,6.66691 l 0.16339,0.56212 c 0.69369,4.19546 -9.94243,7.7634 -23.75249,7.97415 -13.81,0.21073 -25.5687,-3.02049 -26.2624,-7.21596 -0.6937,-4.19546 9.9425,-7.76341 23.7525,-7.97414 0.4091,-0.006 0.8167,-0.0128 1.2223,-0.0131 z"
         style="fill:#ffcc00;fill-opacity:1;stroke:none" />
    </g>
    <text
       inkscape:export-ydpi="90"
       inkscape:export-xdpi="90"
       inkscape:export-filename="/home/muslih/Documents/2013/paduhost-web/img/logo.png"
       sodipodi:linespacing="125%"
       id="text3249"
       y="606.96173"
       x="219.38748"
       style="font-size:156.15307617px;font-style:normal;font-variant:normal;font-weight:normal;font-stretch:normal;text-align:start;line-height:125%;letter-spacing:0px;word-spacing:0px;writing-mode:lr-tb;text-anchor:start;fill:#333333;fill-opacity:1;stroke:none;font-family:Tw Cen MT Condensed;-inkscape-font-specification:'Tw Cen MT Condensed,'"
       xml:space="preserve"><tspan
         style="font-size:156.15307617px;font-style:normal;font-variant:normal;font-weight:normal;font-stretch:normal;text-align:start;line-height:125%;writing-mode:lr-tb;text-anchor:start;fill:#333333;font-family:Tw Cen MT Condensed;-inkscape-font-specification:'Tw Cen MT Condensed,'"
         y="606.96173"
         x="219.38748"
         id="tspan3251"
         sodipodi:role="line">PADU<tspan
   style="fill:#ffcc00"
   id="tspan3255">HOST</tspan></tspan></text>
    <text
       inkscape:export-ydpi="90"
       inkscape:export-xdpi="90"
       inkscape:export-filename="/home/muslih/Documents/2013/paduhost-web/img/logo.png"
       sodipodi:linespacing="125%"
       id="text3257"
       y="650.90149"
       x="231.27785"
       style="font-size:38.34249878px;font-style:normal;font-weight:normal;line-height:125%;letter-spacing:0px;word-spacing:0px;fill:#333333;fill-opacity:1;stroke:none;font-family:Sans"
       xml:space="preserve"><tspan
         style="font-size:38.34249878px;font-style:normal;font-variant:normal;font-weight:normal;font-stretch:normal;text-align:start;line-height:125%;letter-spacing:4.14440823;writing-mode:lr-tb;text-anchor:start;fill:#333333;font-family:Ubuntu Condensed;-inkscape-font-specification:'Ubuntu Condensed,'"
         y="650.90149"
         x="231.27785"
         id="tspan3259"
         sodipodi:role="line">hosting murah indonesia</tspan></text>
  </g>
</svg>
